<?xml version="1.0" encoding="UTF-8" standalone="no"?>
<!-- Created with Inkscape (http://www.inkscape.org/) -->

<svg
   xmlns:dc="http://purl.org/dc/elements/1.1/"
   xmlns:cc="http://creativecommons.org/ns#"
   xmlns:rdf="http://www.w3.org/1999/02/22-rdf-syntax-ns#"
   xmlns:svg="http://www.w3.org/2000/svg"
   xmlns="http://www.w3.org/2000/svg"
   xmlns:sodipodi="http://sodipodi.sourceforge.net/DTD/sodipodi-0.dtd"
   xmlns:inkscape="http://www.inkscape.org/namespaces/inkscape"
   width="210mm"
   height="297mm"
   viewBox="0 0 210 297"
   version="1.1"
   id="svg8"
   inkscape:version="0.92.4 (5da689c313, 2019-01-14)"
   sodipodi:docname="html_logo.svg">
  <defs
     id="defs2" />
  <sodipodi:namedview
     id="base"
     pagecolor="#ffffff"
     bordercolor="#666666"
     borderopacity="1.0"
     inkscape:pageopacity="0.0"
     inkscape:pageshadow="2"
     inkscape:zoom="0.98994949"
     inkscape:cx="534.03366"
     inkscape:cy="551.81786"
     inkscape:document-units="mm"
     inkscape:current-layer="layer1"
     showgrid="false"
     inkscape:window-width="1600"
     inkscape:window-height="837"
     inkscape:window-x="-8"
     inkscape:window-y="-8"
     inkscape:window-maximized="1" />
  <metadata
     id="metadata5">
    <rdf:RDF>
      <cc:Work
         rdf:about="">
        <dc:format>image/svg+xml</dc:format>
        <dc:type
           rdf:resource="http://purl.org/dc/dcmitype/StillImage" />
        <dc:title></dc:title>
      </cc:Work>
    </rdf:RDF>
  </metadata>
  <g
     inkscape:label="Capa 1"
     inkscape:groupmode="layer"
     id="layer1">
    <path
       style="fill:#ff0000;stroke-width:0.50507629"
       d="m 399.86699,763.80861 c 0,-25.26001 -0.17204,-23.79262 2.78942,-23.79262 0.65536,0 1.31652,-0.20217 1.46924,-0.44927 0.15271,-0.2471 1.01844,-0.56688 1.92384,-0.71062 1.53276,-0.24335 2.99204,-0.62429 7.45456,-1.94604 0.97227,-0.28798 2.50854,-0.6412 3.41394,-0.78494 0.9054,-0.14375 1.77113,-0.46353 1.92385,-0.71062 0.15271,-0.2471 0.93269,-0.44927 1.73328,-0.44927 0.80058,0 1.59608,-0.22729 1.76776,-0.50508 0.17169,-0.27779 0.96718,-0.50508 1.76777,-0.50508 0.80059,0 1.59608,-0.22728 1.76777,-0.50507 0.17168,-0.2778 0.79399,-0.50508 1.3829,-0.50508 1.13722,0 4.09581,-0.84003 5.55504,-1.57723 0.48237,-0.24369 1.54856,-0.44307 2.36931,-0.44307 0.82075,0 1.63274,-0.22729 1.80442,-0.50508 0.17169,-0.27779 0.96718,-0.50508 1.76777,-0.50508 0.80059,0 1.59608,-0.22728 1.76777,-0.50507 0.17168,-0.2778 0.96718,-0.50508 1.76776,-0.50508 0.80059,0 1.59609,-0.22728 1.76777,-0.50508 0.17169,-0.27779 0.96718,-0.50507 1.76777,-0.50507 0.80059,0 1.59608,-0.22729 1.76777,-0.50508 0.17168,-0.27779 0.96718,-0.50508 1.76776,-0.50508 0.80059,0 1.59608,-0.22728 1.76777,-0.50507 0.17169,-0.27779 1.08082,-0.50508 2.0203,-0.50508 0.93949,0 1.84862,-0.22728 2.02031,-0.50507 0.17169,-0.2778 0.96718,-0.50508 1.76777,-0.50508 0.80058,0 1.59608,-0.22728 1.76776,-0.50508 0.17169,-0.27779 0.96718,-0.50507 1.76777,-0.50507 0.80059,0 1.59608,-0.22729 1.76777,-0.50508 0.17168,-0.27779 0.96718,-0.50508 1.76776,-0.50508 0.80059,0 1.59609,-0.22728 1.76777,-0.50507 0.17169,-0.27779 0.96718,-0.50508 1.76777,-0.50508 0.80058,0 1.59608,-0.22728 1.76777,-0.50507 0.17168,-0.2778 1.09423,-0.50508 2.05011,-0.50508 0.95588,0 1.73796,-0.22728 1.73796,-0.50508 0,-0.27779 0.66844,-0.50507 1.48542,-0.50507 0.81698,0 1.62589,-0.22729 1.79757,-0.50508 0.17169,-0.27779 1.09424,-0.50508 2.05012,-0.50508 0.95587,0 1.73796,-0.22728 1.73796,-0.50507 0,-0.27779 0.78208,-0.50508 1.73795,-0.50508 0.95588,0 1.87843,-0.22728 2.05012,-0.50507 0.17168,-0.2778 0.96718,-0.50508 1.76776,-0.50508 0.80059,0 1.59609,-0.22728 1.76777,-0.50508 0.17169,-0.27779 0.96718,-0.50507 1.76777,-0.50507 0.80058,0 1.59608,-0.22729 1.76777,-0.50508 0.17168,-0.27779 0.73042,-0.50508 1.24163,-0.50508 1.04556,0 1.24929,-1.00874 2.06564,-10.22779 0.53746,-6.06943 1.24192,-13.84073 1.99164,-21.97082 0.5591,-6.06296 1.27946,-14.07237 1.99875,-22.22335 0.26353,-2.98627 0.72911,-8.15699 1.03463,-11.49049 0.30552,-3.3335 0.76074,-8.33376 1.01162,-11.11168 0.25087,-2.77792 0.70609,-7.77817 1.01161,-11.11168 0.30552,-3.3335 0.77308,-8.56104 1.03902,-11.61675 0.26593,-3.05571 0.69716,-7.94232 0.95827,-10.85914 0.26111,-2.91681 0.69625,-7.91707 0.96697,-11.11168 0.27071,-3.1946 0.61261,-6.37659 0.75977,-7.07107 0.14716,-0.69448 0.37046,-3.59235 0.49621,-6.43972 l 0.22864,-5.17703 h -52.98533 -52.98534 v -22.72843 -22.72843 h 55.04369 55.04369 l 0.23384,-1.13643 c 0.12861,-0.62503 0.37242,-2.84105 0.54179,-4.92449 0.29038,-3.57212 0.60138,-7.01492 1.74517,-19.31917 0.26469,-2.84736 0.69804,-7.7908 0.96301,-10.98541 0.26497,-3.1946 0.65185,-6.58115 0.85974,-7.52567 0.30175,-1.371 0.18995,-1.85478 -0.55448,-2.39911 -0.7696,-0.56275 -10.79444,-0.68182 -57.40444,-0.68182 H 399.86699 V 459.69866 437.4753 h 74.32123 74.32123 l -0.31881,4.16688 c -0.36499,4.77053 -1.46178,17.30467 -2.86169,32.70369 l -1.01015,11.11168 -1.01015,11.11167 c -0.27779,3.05572 -0.73834,8.11279 -1.02344,11.23795 -0.2851,3.12516 -0.73538,8.18224 -1.00063,11.23795 -0.61417,7.07535 -1.42359,16.20225 -2.03807,22.98097 -0.2644,2.91681 -0.70929,7.91707 -0.98862,11.11168 -0.27934,3.1946 -0.74107,8.3085 -1.02606,11.36421 -0.28498,3.05571 -0.73395,8.05597 -0.9977,11.11168 -0.26375,3.05571 -0.7118,8.11279 -0.99567,11.23795 -0.28386,3.12516 -0.73183,8.12541 -0.9955,11.11168 -0.26366,2.98626 -0.72979,8.15698 -1.03584,11.49048 -0.30605,3.3335 -0.76682,8.4474 -1.02394,11.36422 -0.25712,2.91681 -0.70665,7.80343 -0.99896,10.85914 -0.29231,3.05571 -0.75223,8.11279 -1.02204,11.23794 l -0.98118,11.36422 c -0.26981,3.12516 -0.72438,8.18224 -1.01013,11.23795 -0.49007,5.24049 -0.8427,9.15272 -2.07143,22.98097 -0.28386,3.19461 -0.72195,8.08122 -0.97354,10.85914 -0.73188,8.08119 -1.4776,16.48421 -2.00581,22.60216 -0.26982,3.12516 -0.71395,8.06859 -0.98695,10.98541 -0.27299,2.91682 -0.73537,8.14436 -1.0275,11.61675 -0.66948,7.9576 -1.01343,9.24816 -2.58188,9.68743 -0.6746,0.18894 -2.24932,0.61304 -3.49938,0.94246 -1.25007,0.32942 -2.84106,0.77351 -3.53554,0.98687 -0.69448,0.21336 -2.28547,0.66793 -3.53553,1.01015 -1.25006,0.34223 -2.84105,0.79679 -3.53553,1.01015 -0.69448,0.21336 -2.28547,0.66524 -3.53554,1.00418 -1.25006,0.33894 -2.79492,0.81987 -3.43303,1.06873 -0.6381,0.24886 -1.70429,0.45248 -2.3693,0.45248 -0.66502,0 -1.34959,0.22728 -1.52127,0.50507 -0.17169,0.27779 -0.85626,0.50508 -1.52127,0.50508 -0.66502,0 -1.73121,0.20361 -2.36931,0.45248 -0.6381,0.24886 -2.18297,0.72979 -3.43303,1.06873 -1.25006,0.33893 -2.84105,0.79081 -3.53553,1.00417 -0.69448,0.21336 -2.28547,0.67229 -3.53554,1.01985 -2.19832,0.61121 -2.99554,0.82589 -7.3236,1.97215 -1.11117,0.29428 -3.6113,1.00181 -5.55584,1.57229 -1.94455,0.57047 -4.44467,1.28059 -5.55584,1.57804 -1.11117,0.29745 -2.58852,0.71538 -3.283,0.92874 -0.69448,0.21336 -2.17183,0.63854 -3.28299,0.94485 -1.11117,0.30632 -4.52044,1.24484 -7.57615,2.0856 -3.05571,0.84077 -6.35133,1.75389 -7.3236,2.02915 -0.97227,0.27526 -7.10895,1.97592 -13.63706,3.77923 -6.52811,1.80332 -12.66479,3.5046 -13.63706,3.78063 -7.82188,2.22064 -10.90718,3.0379 -11.46865,3.0379 -0.5247,0 -0.65318,-4.55935 -0.65318,-23.17947 z"
       id="path21"
       inkscape:connector-curvature="0"
       transform="scale(0.26458333)" />
    <path
       style="fill:#ff0000;stroke-width:0.50507629"
       d="m 399.86699,656.4799 v -35.66191 h 27.55173 27.55174 l -0.29095,3.15672 c -0.16003,1.7362 -0.51514,5.54322 -0.78913,8.46003 -0.274,2.91682 -1.30365,14.39468 -2.28811,25.50635 -0.98446,11.11168 -1.94751,20.35467 -2.14013,20.53999 -0.19262,0.18531 -2.96399,1.02113 -6.15859,1.85738 -3.19461,0.83624 -7.62665,2.0106 -9.84899,2.60967 -2.22234,0.59907 -6.19981,1.6575 -8.83883,2.35205 -2.63903,0.69456 -5.59372,1.48608 -6.566,1.75893 -0.97227,0.27286 -2.56326,0.69317 -3.53553,0.93402 -0.97227,0.24085 -2.62008,0.68031 -3.6618,0.97657 l -3.78808,1.07732 c -1.04172,0.29626 -2.68953,0.72235 -3.6618,0.94688 -0.97227,0.22451 -2.16551,0.57465 -2.65165,0.77807 -0.83694,0.35021 -0.88388,-1.52416 -0.88388,-35.29207 z"
       id="path23"
       inkscape:connector-curvature="0"
       transform="scale(0.26458333)" />
    <path
       style="fill:#800000;stroke-width:0.50507629"
       d="m 398.09922,817.38006 c -0.83337,-0.0908 -1.73115,-0.37493 -1.99505,-0.63134 -0.2639,-0.25642 -1.22986,-0.46621 -2.14657,-0.46621 -0.91672,0 -1.66676,-0.22729 -1.66676,-0.50508 0,-0.27779 -0.78208,-0.50508 -1.73795,-0.50508 -0.95588,0 -1.87843,-0.22728 -2.05012,-0.50507 -0.17168,-0.2778 -0.98059,-0.50508 -1.79757,-0.50508 -0.81699,0 -1.48542,-0.22728 -1.48542,-0.50508 0,-0.27779 -0.78208,-0.50507 -1.73796,-0.50507 -0.95588,0 -1.87843,-0.22729 -2.05012,-0.50508 -0.17168,-0.27779 -0.96718,-0.50507 -1.76776,-0.50507 -0.80059,0 -1.59608,-0.22729 -1.76777,-0.50508 -0.17169,-0.27779 -1.09424,-0.50508 -2.05011,-0.50508 -0.95588,0 -1.73796,-0.22728 -1.73796,-0.50507 0,-0.2778 -0.7955,-0.50508 -1.76777,-0.50508 -0.97227,0 -1.76777,-0.22728 -1.76777,-0.50508 0,-0.27779 -0.78208,-0.50507 -1.73795,-0.50507 -0.95588,0 -1.87843,-0.22729 -2.05012,-0.50508 -0.17168,-0.27779 -0.96718,-0.50508 -1.76776,-0.50508 -0.80059,0 -1.59609,-0.22728 -1.76777,-0.50507 -0.17169,-0.27779 -0.96718,-0.50508 -1.76777,-0.50508 -0.80059,0 -1.59608,-0.22728 -1.76777,-0.50507 -0.17168,-0.2778 -0.96718,-0.50508 -1.76776,-0.50508 -0.80059,0 -1.59608,-0.22728 -1.76777,-0.50508 -0.17169,-0.27779 -0.96718,-0.50507 -1.76777,-0.50507 -0.80058,0 -1.58056,-0.20217 -1.73327,-0.44927 -0.26243,-0.42462 -0.88764,-0.58005 -5.46875,-1.35956 -1.04429,-0.1777 -2.02366,-0.52526 -2.17638,-0.77236 -0.15271,-0.2471 -0.93269,-0.44927 -1.73327,-0.44927 -0.80059,0 -1.59609,-0.22728 -1.76777,-0.50508 -0.17169,-0.27779 -0.96718,-0.50507 -1.76777,-0.50507 -0.80058,0 -1.59608,-0.22729 -1.76777,-0.50508 -0.17168,-0.27779 -1.09423,-0.50508 -2.05011,-0.50508 -0.95588,0 -1.73796,-0.22728 -1.73796,-0.50507 0,-0.27779 -0.66844,-0.50508 -1.48542,-0.50508 -0.81698,0 -1.62589,-0.22728 -1.79757,-0.50507 -0.17169,-0.2778 -1.08083,-0.50508 -2.02031,-0.50508 -0.93948,0 -1.84862,-0.22728 -2.0203,-0.50508 -0.17169,-0.27779 -0.96718,-0.50507 -1.76777,-0.50507 -0.80059,0 -1.59608,-0.22729 -1.76777,-0.50508 -0.17168,-0.27779 -0.96718,-0.50508 -1.76776,-0.50508 -0.80059,0 -1.59609,-0.22728 -1.76777,-0.50507 -0.17169,-0.27779 -0.96718,-0.50508 -1.76777,-0.50508 -0.80058,0 -1.59608,-0.22728 -1.76777,-0.50507 -0.17168,-0.2778 -0.96718,-0.50508 -1.76776,-0.50508 -0.80059,0 -1.58056,-0.20217 -1.73328,-0.44927 -0.26243,-0.42461 -0.88764,-0.58005 -5.46874,-1.35956 -1.0443,-0.1777 -2.02367,-0.52526 -2.17638,-0.77236 -0.15272,-0.2471 -0.93269,-0.44927 -1.73328,-0.44927 -0.80059,0 -1.59608,-0.22728 -1.76777,-0.50507 -0.17168,-0.2778 -0.96718,-0.50508 -1.76776,-0.50508 -0.80059,0 -1.58056,-0.20217 -1.73328,-0.44927 -0.15272,-0.2471 -1.01845,-0.56688 -1.92385,-0.71062 -1.49864,-0.23792 -2.61217,-0.52615 -7.20201,-1.86416 -0.83338,-0.24294 -3.33351,-0.92768 -5.55584,-1.52164 -2.22234,-0.59396 -4.77929,-1.29151 -5.68211,-1.55011 -4.40203,-1.26092 -9.07246,-2.54561 -14.52094,-3.99426 -2.22234,-0.59087 -5.55213,-1.51991 -7.39953,-2.06452 l -3.35891,-0.99019 -0.32718,-2.39272 c -0.17994,-1.316 -0.53487,-4.7792 -0.78873,-7.69602 -0.93251,-10.71446 -1.54009,-17.55076 -2.02,-22.72843 -0.27036,-2.91682 -0.72341,-7.91707 -1.00678,-11.11168 -0.28337,-3.19461 -0.73732,-8.3085 -1.00878,-11.36422 -0.27145,-3.05571 -0.7254,-8.1696 -1.00877,-11.36421 -0.28337,-3.19461 -0.73856,-8.19486 -1.01153,-11.11168 -0.27297,-2.91682 -0.72816,-7.91707 -1.01153,-11.11168 -0.28337,-3.19461 -0.73732,-8.3085 -1.00878,-11.36421 -0.27145,-3.05572 -0.7254,-8.16961 -1.00877,-11.36422 -0.28337,-3.19461 -0.74699,-8.30851 -1.03025,-11.36422 -0.28327,-3.05571 -0.6279,-7.82868 -0.76585,-10.6066 -0.13796,-2.77792 -0.46675,-5.50533 -0.73066,-6.06091 -0.26391,-0.55559 -0.5927,-3.283 -0.73066,-6.06092 -0.13795,-2.77792 -0.48045,-7.55089 -0.7611,-10.6066 -0.28065,-3.05571 -0.75033,-8.28325 -1.04372,-11.61675 -0.29339,-3.33351 -0.75207,-8.50423 -1.01929,-11.49049 -0.26721,-2.98626 -0.70145,-7.87288 -0.96498,-10.85914 -0.26352,-2.98626 -0.72251,-8.15698 -1.01996,-11.49049 -1.28577,-14.40929 -1.50982,-16.98508 -1.97703,-22.72843 -0.27117,-3.3335 -0.73032,-8.67468 -1.02033,-11.86929 -0.29,-3.19461 -0.75418,-8.42215 -1.0315,-11.61675 -0.94972,-10.94042 -2.92003,-33.34185 -3.5539,-40.40611 -0.28666,-3.1946 -0.75653,-8.53578 -1.04416,-11.86929 -0.28764,-3.3335 -0.7467,-8.56104 -1.02014,-11.61675 -1.32268,-14.78095 -2.2301,-25.03049 -2.99598,-33.84011 -0.67904,-7.81089 -1.42945,-16.07415 -1.82321,-20.07678 l -0.33539,-3.40927 h 180.68266 180.68267 l -0.33049,2.65165 c -0.18176,1.45841 -0.43667,4.92449 -0.56644,7.70241 -0.12978,2.77792 -0.45189,5.50534 -0.7158,6.06092 -0.2639,0.55558 -0.5927,3.283 -0.73065,6.06091 -0.13796,2.77792 -0.48456,7.60772 -0.77024,10.73288 -0.28568,3.12515 -0.73502,8.12541 -0.99855,11.11167 -0.26352,2.98627 -0.72977,8.15699 -1.03609,11.49049 -0.30632,3.3335 -0.77454,8.56104 -1.04048,11.61675 -0.60452,6.94621 -1.27078,14.39222 -1.98851,22.22336 -1.01241,11.0463 -1.46672,16.09694 -2.02177,22.47589 -0.30214,3.4724 -0.75566,8.5863 -1.00782,11.36422 -1.29206,14.23418 -1.59647,17.5993 -2.03318,22.47589 -0.2612,2.91682 -0.71577,8.03072 -1.01015,11.36422 -0.88211,9.98891 -1.45185,16.35895 -1.9877,22.22336 -0.2792,3.05571 -0.74831,8.28325 -1.04246,11.61675 -0.72722,8.24125 -1.40607,15.832 -2.01006,22.47589 -0.2778,3.05572 -0.72067,7.99915 -0.98417,10.98541 -0.2635,2.98627 -0.71807,8.10016 -1.01015,11.36422 -0.29209,3.26405 -0.76783,8.60524 -1.0572,11.86929 -0.28937,3.26406 -0.73783,8.32113 -0.99658,11.23795 -0.25875,2.91681 -0.70384,7.86025 -0.9891,10.98541 -0.6436,7.05114 -1.32473,14.70427 -2.01157,22.60216 -0.77215,8.87885 -1.61828,18.44177 -3.02768,34.21892 -0.29159,3.26405 -0.76316,8.60524 -1.04796,11.86929 -0.28478,3.26406 -0.85907,9.79848 -1.27619,14.52094 -0.41712,4.72247 -0.89646,10.20028 -1.06519,12.17292 l -0.30679,3.58661 -9.65496,2.65372 c -5.31023,1.45955 -11.24595,3.08558 -13.19049,3.61341 -1.94455,0.52782 -4.21739,1.15503 -5.05077,1.3938 -0.83337,0.23876 -2.53801,0.71579 -3.78807,1.06007 -1.25006,0.34427 -2.79492,0.82956 -3.43303,1.07842 -0.6381,0.24886 -1.70429,0.45248 -2.36931,0.45248 -0.66501,0 -1.34958,0.22729 -1.52127,0.50508 -0.17168,0.27779 -0.96718,0.50507 -1.76776,0.50507 -0.80059,0 -1.58056,0.20218 -1.73328,0.44927 -0.15272,0.2471 -1.01844,0.56688 -1.92384,0.71063 -0.9054,0.14374 -2.4985,0.50978 -3.54022,0.81341 -1.04172,0.30364 -2.74635,0.80051 -3.78807,1.10415 -1.04172,0.30364 -2.63482,0.66967 -3.54022,0.81341 -0.9054,0.14375 -1.77112,0.46353 -1.92384,0.71063 -0.15272,0.24709 -0.93269,0.44927 -1.73328,0.44927 -0.80058,0 -1.59608,0.22728 -1.76777,0.50507 -0.17168,0.27779 -0.79399,0.50508 -1.3829,0.50508 -1.13722,0 -4.09581,0.84003 -5.55504,1.57723 -0.48237,0.24369 -1.54855,0.44307 -2.3693,0.44307 -0.82076,0 -1.63275,0.22729 -1.80443,0.50508 -0.17169,0.27779 -0.96718,0.50508 -1.76777,0.50508 -0.80059,0 -1.59608,0.22728 -1.76777,0.50507 -0.17168,0.2778 -0.96718,0.50508 -1.76776,0.50508 -0.80059,0 -1.59609,0.22728 -1.76777,0.50508 -0.17169,0.27779 -0.96718,0.50507 -1.76777,0.50507 -0.80058,0 -1.59608,0.22729 -1.76776,0.50508 -0.17169,0.27779 -0.96719,0.50507 -1.76777,0.50507 -0.80059,0 -1.59608,0.22729 -1.76777,0.50508 -0.17168,0.27779 -1.09424,0.50508 -2.05011,0.50508 -0.95588,0 -1.73796,0.20242 -1.73796,0.44981 0,0.2474 -0.7955,0.58833 -1.76777,0.75762 -0.97227,0.16929 -2.56537,0.44655 -3.54021,0.61614 -0.97485,0.16959 -1.8974,0.51052 -2.05012,0.75761 -0.15271,0.2471 -0.93269,0.44927 -1.73327,0.44927 -0.80059,0 -1.59609,0.22729 -1.76777,0.50508 -0.17169,0.27779 -0.96718,0.50508 -1.76777,0.50508 -0.80058,0 -1.59608,0.22728 -1.76776,0.50507 -0.17169,0.2778 -0.96719,0.50508 -1.76777,0.50508 -0.80059,0 -1.58056,0.20217 -1.73328,0.44927 -0.15272,0.2471 -1.07526,0.58803 -2.05011,0.75761 l -3.5449,0.61669 c -0.97485,0.16959 -1.89739,0.51052 -2.05011,0.75762 -0.15272,0.2471 -0.93269,0.44927 -1.73328,0.44927 -0.80059,0 -1.59608,0.22728 -1.76777,0.50507 -0.17168,0.2778 -0.96718,0.50508 -1.76776,0.50508 -0.80059,0 -1.59608,0.22728 -1.76777,0.50508 -0.17169,0.27779 -0.96718,0.50507 -1.76777,0.50507 -0.80058,0 -1.59608,0.22729 -1.76776,0.50508 -0.17169,0.27779 -1.09424,0.50508 -2.05012,0.50508 -0.95588,0 -1.73796,0.22728 -1.73796,0.50507 0,0.27779 -0.79549,0.50508 -1.76776,0.50508 -0.97228,0 -1.76777,0.22728 -1.76777,0.50507 0,0.2778 -0.7955,0.50508 -1.76777,0.50508 -0.97227,0 -1.76776,0.22728 -1.76776,0.50508 0,0.27779 -0.78208,0.50507 -1.73796,0.50507 -0.95588,0 -1.87843,0.22729 -2.05012,0.50508 -0.17168,0.27779 -0.96718,0.50508 -1.76776,0.50508 -0.80059,0 -1.58125,0.20327 -1.7348,0.45172 -0.32586,0.52726 -3.40831,0.88347 -5.58881,0.64583 z m 23.69543,-35.98967 c 22.2318,-6.14668 47.15133,-13.11973 62.42008,-17.46657 5.41694,-1.54215 10.64448,-2.97565 11.61675,-3.18558 0.97227,-0.20992 5.74524,-1.53088 10.6066,-2.93546 4.86136,-1.40458 9.76776,-2.79802 10.90311,-3.09653 1.41927,-0.37315 2.24718,-0.94418 2.64965,-1.8275 0.55971,-1.22844 1.39772,-9.94987 7.15669,-74.48207 1.40066,-15.69524 4.01498,-44.78764 5.80958,-64.64976 1.7946,-19.86212 4.86269,-54.06842 6.81798,-76.01398 1.95529,-21.94556 4.45495,-49.90154 5.55481,-62.12438 1.09987,-12.22285 2.29698,-25.80308 2.66025,-30.17831 l 0.6605,-7.95495 h -74.39183 -74.39183 v 22.22119 22.22119 l -56.94735,0.12843 -56.94735,0.12844 0.10382,5.05076 c 0.0571,2.77792 0.3412,7.60771 0.63134,10.73287 1.31332,14.14597 1.57946,17.34635 1.81659,21.84455 0.13912,2.63903 0.46852,5.2528 0.73201,5.80838 0.26348,0.55558 0.59194,3.283 0.72989,6.06092 0.13795,2.77791 0.48259,7.55089 0.76585,10.6066 0.50419,5.43887 1.01777,11.06568 2.02843,22.22335 0.27678,3.05571 0.72231,7.94233 0.99006,10.85914 0.26775,2.91682 0.72129,7.91707 1.00787,11.11168 0.28657,3.19461 0.74925,8.30851 1.02816,11.36422 0.2789,3.05571 0.73009,8.05596 1.00263,11.11168 0.27254,3.05571 0.6437,6.97636 0.82479,8.71256 l 0.32926,3.15673 h 50.952 50.952 v 34.80895 c 0,19.14493 0.1531,35.20793 0.34022,35.69556 0.27732,0.72269 0.16059,0.81201 -0.63134,0.48311 -0.96166,-0.39938 -3.09037,-0.94905 -6.02234,-1.55508 -0.83337,-0.17225 -1.96979,-0.50623 -2.52538,-0.74217 -0.55558,-0.23594 -1.57836,-0.54394 -2.27284,-0.68443 -0.69448,-0.14049 -2.17183,-0.51365 -3.283,-0.82924 -1.11116,-0.31559 -2.8158,-0.76402 -3.78807,-0.99651 -0.97227,-0.23249 -3.13147,-0.80246 -4.79822,-1.26659 -3.20375,-0.89213 -7.65469,-2.06926 -19.1929,-5.07587 -3.88909,-1.01341 -7.34087,-2.06587 -7.67062,-2.3388 -0.35473,-0.2936 -0.70734,-2.59568 -0.86354,-5.6378 -0.14519,-2.82787 -0.50908,-7.86899 -0.80864,-11.20249 -0.29956,-3.33351 -0.71731,-8.4474 -0.92834,-11.36422 -0.21103,-2.91681 -0.65132,-5.92833 -0.97842,-6.69226 l -0.59473,-1.38896 h -22.75678 c -20.59487,0 -22.78689,0.0784 -23.07359,0.82557 -0.17424,0.45407 -0.0505,3.57923 0.27487,6.9448 0.32542,3.36558 1.37897,15.09696 2.34122,26.06974 0.96225,10.97278 1.9726,22.337 2.24522,25.25382 0.27262,2.91681 0.63964,7.07987 0.8156,9.25123 0.24748,3.05408 0.50957,4.00586 1.15755,4.20375 0.46071,0.1407 1.23231,0.46651 1.71468,0.72402 0.48237,0.25751 1.43491,0.46821 2.11676,0.46821 0.68186,0 1.38021,0.22728 1.55189,0.50507 0.17169,0.2778 0.96719,0.50508 1.76777,0.50508 0.80059,0 1.59608,0.22728 1.76777,0.50508 0.17168,0.27779 0.96718,0.50507 1.76777,0.50507 0.80058,0 1.59608,0.22729 1.76776,0.50508 0.17169,0.27779 1.08083,0.50507 2.02031,0.50507 0.93948,0 1.84862,0.22729 2.0203,0.50508 0.17169,0.27779 0.96718,0.50508 1.76777,0.50508 0.80059,0 1.59608,0.22728 1.76777,0.50507 0.17168,0.2778 0.96718,0.50508 1.76776,0.50508 0.80059,0 1.59608,0.22728 1.76777,0.50508 0.17169,0.27779 0.96718,0.50507 1.76777,0.50507 0.80058,0 1.59608,0.22729 1.76776,0.50508 0.17169,0.27779 0.96718,0.50507 1.76777,0.50507 0.80059,0 1.59608,0.22729 1.76777,0.50508 0.17168,0.27779 0.96718,0.50508 1.76777,0.50508 0.80058,0 1.59608,0.22728 1.76776,0.50507 0.17169,0.2778 0.96718,0.50508 1.76777,0.50508 0.80059,0 1.59608,0.22728 1.76777,0.50508 0.17168,0.27779 0.96718,0.50507 1.76776,0.50507 0.80059,0 1.59608,0.22729 1.76777,0.50508 0.17169,0.27779 0.96718,0.50507 1.76777,0.50507 0.80058,0 1.59608,0.22729 1.76776,0.50508 0.17169,0.27779 1.08083,0.50508 2.02031,0.50508 0.93948,0 1.84862,0.22728 2.0203,0.50507 0.17169,0.2778 0.96718,0.50508 1.76777,0.50508 0.80059,0 1.59608,0.22728 1.76777,0.50508 0.17168,0.27779 0.96718,0.50507 1.76776,0.50507 0.80059,0 1.59609,0.22729 1.76777,0.50508 0.17169,0.27779 0.96718,0.50508 1.76777,0.50508 0.80059,0 1.59608,0.22728 1.76777,0.50507 0.17168,0.27779 0.96718,0.50508 1.76776,0.50508 0.80059,0 1.59608,0.22728 1.76777,0.50507 0.17169,0.2778 0.96718,0.50508 1.76777,0.50508 0.80058,0 1.58056,0.20217 1.73327,0.44927 0.15272,0.2471 1.01845,0.56688 1.92385,0.71062 0.9054,0.14374 2.49849,0.50978 3.54021,0.81342 1.04172,0.30364 2.74636,0.8005 3.78808,1.10415 1.04172,0.30363 2.63481,0.66967 3.54021,0.81341 0.9054,0.14375 1.77113,0.46352 1.92385,0.71062 0.15271,0.2471 0.93269,0.44927 1.73327,0.44927 0.80059,0 1.59608,0.22729 1.76777,0.50508 0.17168,0.27779 0.96718,0.50508 1.76777,0.50508 0.80058,0 1.59608,0.22728 1.76776,0.50507 0.17169,0.27779 0.82164,0.50508 1.44434,0.50508 0.62271,0 1.68889,0.26261 2.36931,0.58358 l 1.23712,0.58358 -0.14176,22.24532 c -0.078,12.23492 -0.0283,22.54103 0.11042,22.90246 0.13869,0.36143 0.52399,0.65715 0.85621,0.65715 0.33222,0 9.71483,-2.51896 20.85025,-5.59769 z"
       id="path25"
       inkscape:connector-curvature="0"
       transform="scale(0.26458333)" />
    <path
       style="fill:#800000;stroke-width:0.50507629"
       d="m 340.06281,569.93155 c -0.26697,-4.26149 -0.7666,-10.13542 -1.81513,-21.33947 -0.27297,-2.91681 -0.70445,-7.80343 -0.95886,-10.85914 -0.2544,-3.05571 -0.6231,-6.29451 -0.81932,-7.19734 l -0.35677,-1.64149 h 31.87713 31.87713 v 22.72843 22.72843 h -29.76366 -29.76365 z"
       id="path27"
       inkscape:connector-curvature="0"
       transform="scale(0.26458333)" />
    <path
       style="fill:#1a1a1a;stroke-width:0.50507629"
       d="m 299.08725,618.16634 c -0.21306,-0.62503 -0.58247,-3.63655 -0.82091,-6.69226 -0.23844,-3.05571 -0.65884,-7.99915 -0.93422,-10.98541 -0.27538,-2.98627 -0.72798,-7.9297 -1.00577,-10.98541 -0.27779,-3.05571 -0.73039,-7.99915 -1.00577,-10.98541 -0.27538,-2.98626 -0.72994,-7.98652 -1.01015,-11.11168 -0.2802,-3.12516 -0.73674,-8.18223 -1.01454,-11.23795 l -1.01015,-11.11167 c -0.27779,-3.05571 -0.73039,-7.99915 -1.00577,-10.98541 -0.27538,-2.98627 -0.72994,-7.98652 -1.01015,-11.11168 -0.2802,-3.12516 -0.73674,-8.18224 -1.01454,-11.23795 -0.27779,-3.05571 -0.73038,-7.99914 -1.00576,-10.98541 -0.27538,-2.98626 -0.67313,-7.95898 -0.88389,-11.05049 l -0.38319,-5.62093 112.52714,-0.3765 c 61.88992,-0.20708 112.66903,-0.23461 112.84245,-0.0612 0.17343,0.17342 -25.06951,0.31532 -56.09542,0.31532 h -56.41074 l 0.13683,21.71843 0.13683,21.71844 -32.14458,-1.6e-4 c -25.27473,-1.2e-4 -32.18638,0.13478 -32.34018,0.63119 -0.21093,0.68079 0.28529,8.61506 1.09768,17.5514 l 1.01016,11.11168 c 0.27779,3.05571 0.68638,7.99915 0.90799,10.98541 0.22161,2.98626 0.67246,6.05961 1.00189,6.82965 l 0.59896,1.40009 81.95689,-0.18109 c 45.07629,-0.0996 58.48979,-0.10355 29.80777,-0.009 l -52.14912,0.17233 v 21.71593 21.71593 h -50.19618 -50.19618 z"
       id="path29"
       inkscape:connector-curvature="0"
       transform="scale(0.26458333)" />
    <path
       style="fill:#1a1a1a;stroke-width:0.50507629"
       d="m 397.71834,738.70913 c -0.27547,-0.27547 -1.3675,-0.59274 -5.93257,-1.7236 -0.97227,-0.24085 -2.56326,-0.66749 -3.53554,-0.94809 -0.97227,-0.2806 -2.62008,-0.75028 -3.6618,-1.04374 l -3.78807,-1.0671 c -1.04172,-0.29346 -2.57589,-0.71917 -3.40927,-0.94603 -14.79205,-4.02666 -31.35034,-8.59487 -33.08249,-9.12702 -1.28471,-0.39469 -4.1881,-1.18075 -7.82868,-2.11955 -1.11117,-0.28654 -2.47488,-0.70523 -3.03046,-0.93044 -1.08048,-0.43796 -3.02848,-0.89527 -5.68679,-1.335 -0.9054,-0.14977 -1.77113,-0.47448 -1.92385,-0.72158 -0.15271,-0.2471 -0.93269,-0.44927 -1.73327,-0.44927 -0.80059,0 -1.59609,-0.22729 -1.76777,-0.50508 -0.17169,-0.27779 -0.96718,-0.50507 -1.76777,-0.50507 -0.80058,0 -1.59608,-0.22729 -1.76776,-0.50508 -0.17169,-0.27779 -0.96718,-0.50508 -1.76777,-0.50508 -0.80059,0 -1.59608,-0.22728 -1.76777,-0.50507 -0.17168,-0.27779 -0.96718,-0.50508 -1.76776,-0.50508 -0.80059,0 -1.59609,-0.22728 -1.76777,-0.50508 -0.17169,-0.27779 -1.08991,-0.50507 -2.04049,-0.50507 -2.16776,0 -2.06809,0.39763 -3.29158,-13.13198 -0.28889,-3.19461 -0.73051,-8.08123 -0.98139,-10.85914 -0.44285,-4.90382 -1.0756,-11.84096 -2.02701,-22.22336 -0.77265,-8.4317 -1.51522,-16.97073 -1.81224,-20.83974 l -0.28153,-3.66714 22.13717,0.13161 22.13718,0.13161 0.33325,4.54568 c 0.18329,2.50013 0.57556,7.2731 0.8717,10.60661 0.29614,3.3335 0.74894,8.78832 1.00621,12.12183 0.57802,7.48922 0.89973,8.83883 2.10693,8.83883 0.50908,0 1.06606,0.22729 1.23775,0.50508 0.17168,0.27779 1.08082,0.50507 2.0203,0.50507 0.93948,0 1.84862,0.22729 2.02031,0.50508 0.17168,0.27779 0.96718,0.50508 1.76776,0.50508 0.80059,0 1.58057,0.20217 1.73328,0.44927 0.15272,0.2471 1.01845,0.57181 1.92385,0.72158 2.73041,0.45166 4.62132,0.90205 5.68679,1.35453 0.55558,0.23594 1.63518,0.55975 2.39911,0.71957 l 2.77792,0.58116 c 0.76393,0.15982 1.84353,0.48363 2.39911,0.71957 0.55558,0.23595 1.63518,0.55975 2.39911,0.71957 l 2.77792,0.58117 c 0.76393,0.15982 1.84353,0.48363 2.39911,0.71957 0.55559,0.23594 1.63519,0.55975 2.39912,0.71957 l 2.77792,0.58116 c 0.76392,0.15982 1.84352,0.48363 2.39911,0.71957 0.55558,0.23595 1.57836,0.54394 2.27284,0.68443 0.69448,0.1405 2.17183,0.52178 3.283,0.8473 1.11116,0.32553 2.8158,0.70066 3.78807,0.83363 l 1.76777,0.24176 -0.13631,22.9401 c -0.12933,21.76671 -0.18316,22.94011 -1.05224,22.94011 -0.50377,0 -1.04946,-0.13352 -1.21264,-0.29671 z"
       id="path31"
       inkscape:connector-curvature="0"
       transform="scale(0.26458333)" />
    <path
       style="fill:#333333;stroke-width:0.50507629"
       d="m 400.36847,509.06986 c -0.002,-10.06996 -0.14848,-19.84318 -0.32557,-21.71828 l -0.32199,-3.40926 h 56.44425 56.44425 l -0.29549,3.6618 c -0.28714,3.55824 -0.70987,8.22247 -1.80819,19.95051 -0.29266,3.12516 -0.73937,8.12542 -0.99268,11.11168 -0.25331,2.98626 -0.62265,6.16825 -0.82075,7.07107 l -0.36018,1.6415 h -53.98003 -53.98003 z"
       id="path33"
       inkscape:connector-curvature="0"
       transform="scale(0.26458333)" />
    <path
       style="fill:#333333;stroke-width:0.50507629"
       d="m 400.03545,731.88891 c 0.18311,-4.00276 0.33375,-14.35552 0.33477,-23.00612 l 0.002,-15.72838 1.6415,-0.2608 c 0.90283,-0.14344 2.49382,-0.50923 3.53554,-0.81287 4.25893,-1.24139 5.74287,-1.6448 6.94479,-1.88795 0.69448,-0.14049 1.71726,-0.44849 2.27285,-0.68443 0.55558,-0.23594 1.63518,-0.55975 2.39911,-0.71957 0.76393,-0.15982 2.01399,-0.42135 2.77792,-0.58116 0.76393,-0.15982 1.84353,-0.48363 2.39911,-0.71957 0.55559,-0.23595 1.63519,-0.55976 2.39911,-0.71958 0.76393,-0.15981 2.014,-0.42134 2.77792,-0.58116 0.76393,-0.15982 1.84353,-0.48363 2.39912,-0.71957 1.06546,-0.45248 2.95637,-0.90287 5.68679,-1.35453 0.90539,-0.14977 1.77112,-0.47448 1.92384,-0.72158 0.15272,-0.2471 0.93269,-0.44927 1.73328,-0.44927 0.80058,0 1.59608,-0.22729 1.76776,-0.50508 0.17169,-0.27779 1.08083,-0.50507 2.02031,-0.50507 0.93948,0 1.84862,-0.22729 2.0203,-0.50508 0.17169,-0.27779 0.87004,-0.50508 1.55189,-0.50508 0.68186,0 1.6344,-0.21069 2.11677,-0.4682 0.48237,-0.25751 1.24908,-0.58145 1.7038,-0.71985 0.63313,-0.1927 0.90522,-1.1773 1.16171,-4.20375 0.5995,-7.07406 1.29298,-14.952 1.80398,-20.49335 0.27538,-2.98627 0.7163,-7.87288 0.97982,-10.85914 0.26353,-2.98627 0.73415,-8.15699 1.04582,-11.49049 0.31167,-3.3335 0.60745,-7.65191 0.65728,-9.59645 l 0.0906,-3.53553 -28.158,-0.13051 -28.158,-0.13051 V 597.58024 575.8662 h 52.27539 c 50.4337,0 52.2754,0.0328 52.2754,0.92984 0,0.51142 -0.2116,2.72744 -0.47022,4.9245 -0.25862,2.19705 -0.71813,6.8357 -1.02115,10.3081 -0.30301,3.4724 -0.99699,11.31371 -1.54218,17.42513 -0.54518,6.11142 -1.55574,17.70292 -2.24569,25.75889 -1.51444,17.68301 -2.17938,25.27055 -2.56723,29.29443 -0.27659,2.86952 -0.64455,7.04533 -1.80248,20.45558 -0.27584,3.19461 -0.7098,8.08122 -0.96436,10.85914 -0.25456,2.77792 -0.6547,7.66454 -0.88918,10.85914 -0.51821,7.05975 -0.71699,7.57615 -2.91642,7.57615 -0.92615,0 -1.82439,0.22728 -1.99607,0.50507 -0.17169,0.2778 -0.96718,0.50508 -1.76777,0.50508 -0.80059,0 -1.59608,0.22729 -1.76777,0.50508 -0.17168,0.27779 -0.96718,0.50507 -1.76776,0.50507 -0.80059,0 -1.59608,0.22729 -1.76777,0.50508 -0.17169,0.27779 -0.794,0.50508 -1.38291,0.50508 -1.13721,0 -4.0958,0.84002 -5.55504,1.57723 -0.48236,0.24369 -1.54855,0.44307 -2.3693,0.44307 -0.82075,0 -1.63274,0.22729 -1.80443,0.50508 -0.17168,0.27779 -0.96718,0.50507 -1.76777,0.50507 -0.80058,0 -1.59608,0.22729 -1.76776,0.50508 -0.17169,0.27779 -0.96718,0.50508 -1.76777,0.50508 -0.80059,0 -1.58056,0.20217 -1.73327,0.44927 -0.15272,0.24709 -1.01845,0.56401 -1.92385,0.70425 -0.9054,0.14024 -3.35081,0.72195 -5.43425,1.29268 -2.08344,0.57072 -6.74277,1.84775 -10.35407,2.83783 -10.6404,2.9172 -13.98743,3.83385 -16.79378,4.5993 -7.03167,1.91796 -14.14899,3.90701 -17.04633,4.76388 -2.68229,0.79327 -5.5107,1.57135 -7.3236,2.01469 -0.97227,0.23776 -2.31616,0.59976 -2.98641,0.80444 l -1.21865,0.37215 z"
       id="path35"
       inkscape:connector-curvature="0"
       transform="scale(0.26458333)" />
    <g
       style="font-style:normal;font-weight:normal;font-size:10.58333302px;line-height:1.25;font-family:sans-serif;letter-spacing:0px;word-spacing:0px;fill:#000000;fill-opacity:1;stroke:none;stroke-width:0.26458332"
       id="text178" />
    <g
       style="font-style:normal;font-weight:normal;font-size:25.39999962px;line-height:1.25;font-family:sans-serif;letter-spacing:0px;word-spacing:0px;fill:#000000;fill-opacity:1;stroke:none;stroke-width:0.26458332"
       id="text191" />
    <text
       xml:space="preserve"
       style="font-style:normal;font-weight:normal;font-size:10.58333302px;line-height:1.25;font-family:sans-serif;letter-spacing:0px;word-spacing:0px;fill:#000000;fill-opacity:1;stroke:none;stroke-width:0.26458332"
       x="70.291885"
       y="101.62598"
       id="text196"><tspan
         sodipodi:role="line"
         id="tspan194"
         x="70.291885"
         y="101.62598"
         style="font-style:normal;font-variant:normal;font-weight:normal;font-stretch:normal;font-size:25.39999962px;font-family:'Gill Sans Ultra Bold';-inkscape-font-specification:'Gill Sans Ultra Bold, ';stroke-width:0.26458332"><tspan
           style="fill:#442178"
           id="tspan198">W</tspan><tspan
           style="fill:#00d4aa"
           id="tspan200">E</tspan><tspan
           style="fill:#ffcc00"
           id="tspan202">B</tspan></tspan></text>
  </g>
</svg>
